<svg width="750" height="1220" xmlns="http://www.w3.org/2000/svg">

 <g>
  <title>background</title>
  <rect fill="none" id="canvas_background" height="1222" width="752" y="-1" x="-1"/>
 </g>
 <g>
  <title>Layer 1</title>
  <g stroke="null" id="svg_1" fill-rule="evenodd" fill="none">
   <path stroke="null" id="svg_3" d="m2.077778,3l747.922194,0l0,121l-747.922194,0l0,-121z" fill="#FFF"/>
   <path stroke="null" id="svg_4" d="m46.319443,43l398.33679,0l0,47l-398.33679,0l0,-47z" fill="#F6F6F6"/>
   <path stroke="#EEE" id="svg_5" d="m46.662498,126.5l702.99164,0" stroke-linecap="square"/>
   <path stroke="#EEE" id="svg_8" d="m44.584721,1218.5l702.992334,0" stroke-linecap="square"/>
   <g stroke="null" id="svg_9">
    <path stroke="null" id="svg_10" d="m0,299.75168l747.92219,0l0,119.50002l-747.92219,0l0,-119.50002z" fill="#FFF"/>
    <path stroke="null" id="svg_11" d="m44.24236,337.00167l398.3361,0l0,47l-398.3361,0l0,-47z" fill="#F6F6F6"/>
   </g>
   <g stroke="null" id="svg_13">
    <path stroke="null" id="svg_16" d="m0,560.999994l749.412134,0l0,121l-749.412134,0l0,-121z" fill="#FFF"/>
    <path stroke="null" id="svg_17" d="m44.330495,598.999994l399.129624,0l0,47l-399.129624,0l0,-47z" fill="#F6F6F6"/>
    <g stroke="null" id="svg_19">
     <path stroke="null" id="svg_20" d="m0,439.999994l749.412134,0l0,121l-749.412134,0l0,-121z" fill="#FFF"/>
     <path stroke="null" id="svg_21" d="m44.330495,476.999994l399.129624,0l0,47l-399.129624,0l0,-47z" fill="#F6F6F6"/>
     <path stroke="#EEE" id="svg_22" d="m44.673538,560.499994l704.39277,0" stroke-linecap="square"/>
    </g>
   </g>
   <g stroke="null" id="svg_36" fill-rule="nonzero">
    <path stroke="null" id="svg_37" d="m0,0l750.25553,0l0,279.74996l-750.25553,0l0,-279.74996z" fill="#ffffff"/>
    <ellipse stroke="null" id="svg_39" ry="50" rx="50" fill="#C0E6FF" cy="134.861489" cx="641.365486"/>
    <path stroke="null" id="svg_43" d="m44,90l260.33611,0l0,47l-260.33611,0l0,-47z" fill="#F6F6F6"/>
    <path stroke="null" id="svg_44" d="m43.999998,174.001668l304.336093,0l0,29.999999l-304.336093,0l0,-29.999999z" fill="#F6F6F6"/>
   </g>
   <g stroke="null" id="svg_40">
    <path stroke="null" id="svg_6" d="m0,700.000003l748.922204,0l0,121l-748.922204,0l0,-121z" fill="#FFF"/>
    <path stroke="null" id="svg_7" d="m44.301514,738.000003l398.868692,0l0,47l-398.868692,0l0,-47z" fill="#F6F6F6"/>
   </g>
  </g>
 </g>
</svg>