<?xml version="1.0" encoding="utf-8"?>
<!-- Generator: Adobe Illustrator 18.0.0, SVG Export Plug-In . SVG Version: 6.00 Build 0)  -->
<!DOCTYPE svg PUBLIC "-//W3C//DTD SVG 1.1//EN" "http://www.w3.org/Graphics/SVG/1.1/DTD/svg11.dtd">
<svg version="1.1" id="图层_1" xmlns="http://www.w3.org/2000/svg" xmlns:xlink="http://www.w3.org/1999/xlink" x="0px" y="0px"
	 viewBox="0 0 34 32" enable-background="new 0 0 34 32" xml:space="preserve">
<path fill="#232C36" d="M28.5,32h-23C3.6,32,2,30.4,2,28.5v-25C2,1.6,3.6,0,5.5,0h15C21.3,0,22,0.7,22,1.5S21.3,3,20.5,3h-15
	C5.2,3,5,3.2,5,3.5v25C5,28.8,5.2,29,5.5,29h23c0.3,0,0.5-0.2,0.5-0.5v-17c0-0.8,0.7-1.5,1.5-1.5s1.5,0.7,1.5,1.5v17
	C32,30.4,30.4,32,28.5,32z"/>
<path fill="#232C36" d="M13,20.5c-0.4,0-0.8-0.1-1.1-0.4c-0.6-0.6-0.6-1.5,0-2.1l17-17c0.6-0.6,1.5-0.6,2.1,0s0.6,1.5,0,2.1l-17,17
	C13.8,20.4,13.4,20.5,13,20.5z"/>
</svg>
